# xmcd
# 
# Track frame offsets:
#	150
#	11122
#	21100
#	31507
#	52575
#	67765
#	80855
#	93215
#	101665
#	110420
#	126545
#	138602
#	152122
#	170342
#	179202
#	192757
#	206567
#	221390
#	230152
#	243730
#	250507
#	266105
#	284915
#	297360
#	312570
#
# Disc length: 4435 seconds
#
# Revision: 1
# Processed by: cddbd v1.4PL0 Copyright (c) Steve Scherf et al.
# Submitted via: Audio-CD-Archiv 2.10.446
#
DISCID=78115119
DTITLE=Texas Bohemia - The Texas Bohemian Moravian-German Bands
DYEAR=1900
DGENRE=country
TTITLE0=Shiner Hobo Band - Snow Flower Polka
TTITLE1=Adolph Hofner - Beautiful America - Waltz (Krasna Amerika)
TTITLE2=Ray Krenek And His Orchestra - Texas Schottische
TTITLE3=Vrazels and Majeks and Bobby Jones Czech Band - Corn Cockle Polka
TTITLE4=Jimmy Brosch And His Happy Country Boys - Song Of The War (Bude Vijna Bude)
TTITLE5=Ray Baca And His Orchestra - Hayssed Polka
TTITLE6=The Henry Brosch Orchestra - Wooden Heart
TTITLE7=Tuba Meisters - Edelweiss
TTITLE8=The Fayetteville Flash (Lee Roy Matocha's Orchestra) - Cotton Eyed Joe
TTITLE9=Vrazels' Polka Band - Once On The Sunday Waltz
TTITLE10=Henry Tannenberger and His Orchestra - On Our Porch Polka
TTITLE11=The Red Ravens - Stone Heart Waltz
TTITLE12=Vrazels and Majeks and Bobby Jones Czech Band - Shiner Song
TTITLE13=Knutsch Band - Der Itzig Kommt Geritten
TTITLE14=Ellinger Combo - At The Spring Waltz
TTITLE15=Leroy Rybak's Swinging Orchestra - El Rancho Grande
TTITLE16=Joe Patek And Orchestra - Orphan Waltz
TTITLE17=Jimmy Brosch And His Happy Country Boys - Dancing Polka
TTITLE18=The Shiner Hobos - Musicians Come Out And Play
TTITLE19=Knutsch Band - Zwei Wie Mir Zwei
TTITLE20=The Red Ravens - If I Were A Bird Polka
TTITLE21=Shiner Hobo Band - Prune Waltz
TTITLE22=Ray Baca And His Orchestra - Oh Susanna Schottische
TTITLE23=Leo Majek Orchestra - My Marian Waltz
TTITLE24=Vrazels and Majeks and Bobby Jones Czech Band - A Ja Sam (All By Myself)
EXTD=
EXTT0=
EXTT1=
EXTT2=
EXTT3=
EXTT4=
EXTT5=
EXTT6=
EXTT7=
EXTT8=
EXTT9=
EXTT10=
EXTT11=
EXTT12=
EXTT13=
EXTT14=
EXTT15=
EXTT16=
EXTT17=
EXTT18=
EXTT19=
EXTT20=
EXTT21=
EXTT22=
EXTT23=
EXTT24=
PLAYORDER=
